<?xml version="1.0" standalone="no"?>
<!DOCTYPE svg PUBLIC "-//W3C//DTD SVG 20010904//EN"
 "http://www.w3.org/TR/2001/REC-SVG-20010904/DTD/svg10.dtd">
<svg version="1.0" xmlns="http://www.w3.org/2000/svg"
 width="1280.000000pt" height="1280.000000pt" viewBox="0 0 1280.000000 1280.000000"
 preserveAspectRatio="xMidYMid meet">
<g transform="translate(0.000000,1280.000000) scale(0.100000,-0.100000)"
fill="#000000" stroke="none">
<path d="M3169 12796 c-2 -2 -76 -12 -164 -21 -662 -70 -1237 -303 -1750 -709
-126 -100 -372 -341 -478 -469 -266 -320 -474 -696 -600 -1082 -81 -249 -120
-430 -154 -720 -17 -141 -18 -347 -18 -3390 0 -3543 -3 -3322 55 -3660 248
-1427 1442 -2552 2874 -2710 77 -8 177 -20 221 -25 109 -14 6381 -14 6490 0
44 5 144 17 221 25 1334 147 2475 1139 2814 2448 46 180 74 329 89 487 7 63
16 148 21 188 14 100 13 6379 0 6487 -5 44 -17 144 -25 221 -64 585 -302 1163
-675 1646 -105 136 -329 371 -454 477 -468 397 -1026 660 -1606 755 -318 53
-103 50 -3611 53 -1785 2 -3247 1 -3250 -1z m6598 -1101 c548 -72 1055 -344
1411 -760 273 -319 443 -683 519 -1115 17 -101 18 -244 18 -3425 l0 -3320 -23
-128 c-86 -475 -296 -882 -627 -1212 -327 -328 -724 -534 -1205 -627 l-115
-22 -3270 -4 c-2403 -2 -3299 0 -3380 8 -945 98 -1730 789 -1948 1715 -60 254
-57 47 -57 3590 0 2856 2 3258 15 3362 121 927 800 1680 1710 1896 242 58 43
55 3577 56 2872 1 3271 -1 3375 -14z"/>
<path d="M9760 10639 c-260 -67 -466 -277 -526 -535 -22 -96 -20 -250 5 -347
58 -225 233 -418 450 -497 272 -99 555 -36 761 170 145 144 210 302 210 508 0
170 -46 310 -145 441 -171 225 -480 332 -755 260z"/>
<path d="M6190 9563 c-855 -64 -1635 -455 -2189 -1098 -670 -778 -923 -1829
-680 -2825 107 -439 314 -861 599 -1220 107 -135 375 -404 510 -510 455 -361
983 -585 1561 -665 164 -23 496 -30 670 -16 898 76 1691 505 2255 1221 371
471 602 1066 655 1689 14 174 7 506 -16 670 -80 578 -304 1106 -665 1561 -106
135 -375 404 -509 509 -576 455 -1279 698 -2000 689 -80 -1 -166 -3 -191 -5z
m528 -968 c662 -96 1254 -489 1593 -1060 213 -357 313 -718 313 -1135 1 -254
-21 -407 -90 -642 -226 -773 -893 -1383 -1684 -1542 -231 -46 -547 -55 -760
-22 -749 116 -1364 570 -1689 1246 -149 311 -215 604 -215 955 0 358 67 650
224 970 220 452 573 805 1025 1025 260 127 528 200 820 224 92 7 354 -3 463
-19z"/>
</g>
</svg>
